# xmcd
#
# Track frame offsets:
#	150
#	14162
#	30554
#	46657
#	66628
#	83384
#	99240
#	120017
#	135697
#	149326
#	168125
#	181031
#	191311
#	209749
#	223587
#	240007
#	259935
#	271944
#	285092
#	298535
#	312826
#	328592
#
# Disc length: 4569 seconds
#
# Revision: 1
# Processed by: cddbd v1.5.1PL0 Copyright (c) Steve Scherf et al.
# Submitted via: EasyCDDAExtractor 6.2.0.3
#
DISCID=2a11d716
DTITLE=Various Artist - Jeitão De Caboclo
DYEAR=2005
DGENRE=Country
TTITLE0=Adalberto and Adriano - Folha Seca
TTITLE1=Matogrosso and Mathias - A Mais Louca Paixão
TTITLE2=Daniel - Portal Do Mundo
TTITLE3=Chitãozinho and Xororó - Berrante De Ouro
TTITLE4=Zezé Di Camargo and Luciano - Tristeza Do Jeca
TTITLE5=Ronaldo Viola and Praiano - Jeitão De Caboclo
TTITLE6=Jad and Jefferson - Campeão Do Pialo
TTITLE7=Felipe and Falcão - Porta Do Mundo
TTITLE8=Peão Carreiro and Praiano - Carreador
TTITLE9=Sérgio Reis - Mágoa De Boiadeiro
TTITLE10=Otávio Augusto and Gabriel - Mala Amarela
TTITLE11=Crystian and Ralf - Ladrão De Mulher
TTITLE12=João Paulo and Daniel - Nelore Valente
TTITLE13=Bruno and Marrone - O Campeão
TTITLE14=Almir Sater - A Saudade É Uma Estrada Longa
TTITLE15=Roberta Miranda - Luar Do Sertão
TTITLE16=Peão Carreiro and Praiano - Saudosa Vida De Peão
TTITLE17=Jales and Soares - Fim De Viagem
TTITLE18=Max and Elimar - Saudade De Coxim
TTITLE19=Rionegro and Solimões - Chora Viola
TTITLE20=Matogrosso and Mathias - Velho Peão
TTITLE21=Leide Laura - Cutuca Peão
EXTD=by Flávio Abrahão Biasuz
EXTT0=
EXTT1=
EXTT2=
EXTT3=
EXTT4=
EXTT5=
EXTT6=
EXTT7=
EXTT8=
EXTT9=
EXTT10=
EXTT11=
EXTT12=
EXTT13=
EXTT14=
EXTT15=
EXTT16=
EXTT17=
EXTT18=
EXTT19=
EXTT20=
EXTT21=
PLAYORDER=
